<?xml version="1.0" standalone="no"?>
<!DOCTYPE svg PUBLIC "-//W3C//DTD SVG 20010904//EN"
 "http://www.w3.org/TR/2001/REC-SVG-20010904/DTD/svg10.dtd">
     

<svg version="1.0" xmlns="http://www.w3.org/2000/svg"
 width="640.000000pt" height="1280.000000pt" viewBox="0 0 640.000000 1280.000000"
 preserveAspectRatio="xMidYMid meet">
<metadata>
Created by potrace 1.15, written by Peter Selinger 2001-2017
</metadata>
<g transform="translate(0.000000,1280.000000) scale(0.100000,-0.100000)"
fill="#000000" stroke="none">
<path class="ballons" d="M3030 12794 c-554 -47 -998 -226 -1387 -558 -353 -301 -611 -715
-757 -1211 -166 -569 -172 -1193 -15 -1725 17 -58 35 -121 41 -140 51 -173
227 -554 363 -785 470 -800 1222 -1540 1757 -1730 90 -32 137 -68 118 -90 -6
-8 -8 -20 -4 -26 12 -20 11 -72 -2 -99 -18 -37 -117 -128 -148 -136 -31 -7
-35 -34 -5 -34 12 0 47 6 78 14 75 19 297 50 313 43 27 -10 74 -214 104 -447
21 -171 30 -806 15 -1090 -30 -564 -66 -921 -151 -1520 -100 -701 -144 -1095
-154 -1380 l-5 -135 14 170 c13 161 42 452 65 650 12 97 76 555 110 775 85
559 139 1135 160 1715 9 275 1 629 -20 830 -13 117 -54 337 -75 396 -8 23 -15
43 -15 45 0 2 18 4 41 4 59 0 50 30 -15 50 -39 13 -55 26 -87 70 -21 30 -49
61 -63 69 -30 18 -40 60 -19 83 8 9 47 29 87 44 423 160 964 630 1421 1236
201 265 363 528 496 803 71 148 173 392 197 475 6 19 24 82 41 140 92 310 127
617 110 950 -25 472 -118 854 -299 1225 -145 296 -346 558 -583 761 -345 295
-744 472 -1214 539 -105 15 -422 27 -513 19z m285 -6342 c-6 -7 -35 18 -35 31
0 5 9 2 20 -8 11 -10 18 -20 15 -23z" stroke="black" fill="#2C89A0" stroke-width="2" fill-opacity="0.5"/>
<path d="M3184 1605 c0 -66 1 -92 3 -57 2 34 2 88 0 120 -2 31 -3 3 -3 -63z"/>
<path d="M3183 1105 c0 -22 2 -30 4 -17 2 12 2 30 0 40 -3 9 -5 -1 -4 -23z"/>
</g>
</svg>
